<svg xmlns="http://www.w3.org/2000/svg" xmlns:xlink="http://www.w3.org/1999/xlink" preserveAspectRatio="xMidYMid" width="10" height="10" viewBox="0 0 10 10">
  <defs>
    <style>
      .cls-1 {
        fill: #fff;
        fill-rule: evenodd;
      }
    </style>
  </defs>
  <path d="M9.749,1.351 L6.116,4.992 L9.749,8.634 C10.061,8.945 10.061,9.449 9.749,9.760 C9.593,9.916 9.388,9.994 9.183,9.994 C8.979,9.994 8.774,9.916 8.618,9.760 L4.985,6.119 L1.352,9.760 C1.196,9.916 0.991,9.994 0.787,9.994 C0.583,9.994 0.378,9.916 0.222,9.760 C-0.090,9.449 -0.090,8.945 0.222,8.634 L3.855,4.992 L0.222,1.351 C-0.090,1.040 -0.090,0.536 0.222,0.225 C0.534,-0.086 1.040,-0.086 1.352,0.225 L4.985,3.866 L8.618,0.225 C8.931,-0.086 9.437,-0.086 9.749,0.225 C10.061,0.536 10.061,1.040 9.749,1.351 Z" class="cls-1"/>
</svg>
